<mxfile modified="2023-05-22T05:15:58.199Z" host="app.diagrams.net" agent="Mozilla/5.0 (Windows NT 10.0; Win64; x64; rv:109.0) Gecko/20100101 Firefox/113.0" etag="Af_O7sQdeT6kReYwJPTV" version="21.3.2">
  <diagram id="Ht1M8jgEwFfnCIfOTk4-" name="Page-1">
    <mxGraphModel dx="1434" dy="1340" grid="1" gridSize="10" guides="1" tooltips="1" connect="1" arrows="1" fold="1" page="1" pageScale="1" pageWidth="1169" pageHeight="827" math="0" shadow="0">
      <root>
        <mxCell id="0" />
        <mxCell id="1" parent="0" />
        <mxCell id="RiTgKYV7oXshovGY1Z9f-1" value="Postgre" style="shape=cylinder3;whiteSpace=wrap;html=1;boundedLbl=1;backgroundOutline=1;size=15;" vertex="1" parent="1">
          <mxGeometry x="610" y="320" width="60" height="80" as="geometry" />
        </mxCell>
        <mxCell id="RiTgKYV7oXshovGY1Z9f-2" value="Winform App&lt;span style=&quot;white-space: pre;&quot;&gt;	&lt;/span&gt;" style="whiteSpace=wrap;html=1;aspect=fixed;" vertex="1" parent="1">
          <mxGeometry x="120" y="310" width="80" height="80" as="geometry" />
        </mxCell>
        <mxCell id="RiTgKYV7oXshovGY1Z9f-3" value="Account Service" style="html=1;whiteSpace=wrap;strokeColor=none;fillColor=#0079D6;labelPosition=center;verticalLabelPosition=middle;verticalAlign=top;align=center;fontSize=12;outlineConnect=0;spacingTop=-6;fontColor=#FFFFFF;sketch=0;shape=mxgraph.sitemap.services;" vertex="1" parent="1">
          <mxGeometry x="460" y="320" width="120" height="70" as="geometry" />
        </mxCell>
        <mxCell id="RiTgKYV7oXshovGY1Z9f-9" value="" style="endArrow=classic;html=1;rounded=0;exitX=1;exitY=0.5;exitDx=0;exitDy=0;" edge="1" parent="1" source="RiTgKYV7oXshovGY1Z9f-2" target="RiTgKYV7oXshovGY1Z9f-3">
          <mxGeometry width="50" height="50" relative="1" as="geometry">
            <mxPoint x="370" y="520" as="sourcePoint" />
            <mxPoint x="420" y="470" as="targetPoint" />
          </mxGeometry>
        </mxCell>
        <mxCell id="RiTgKYV7oXshovGY1Z9f-11" value="" style="endArrow=classic;html=1;rounded=0;" edge="1" parent="1" source="RiTgKYV7oXshovGY1Z9f-3" target="RiTgKYV7oXshovGY1Z9f-10">
          <mxGeometry width="50" height="50" relative="1" as="geometry">
            <mxPoint x="520" y="320" as="sourcePoint" />
            <mxPoint x="520" y="80" as="targetPoint" />
          </mxGeometry>
        </mxCell>
        <mxCell id="RiTgKYV7oXshovGY1Z9f-10" value="BanhDa" style="verticalLabelPosition=bottom;html=1;verticalAlign=top;align=center;strokeColor=none;fillColor=#00BEF2;shape=mxgraph.azure.website_generic;pointerEvents=1;" vertex="1" parent="1">
          <mxGeometry x="472.5" y="490" width="95" height="70" as="geometry" />
        </mxCell>
        <mxCell id="RiTgKYV7oXshovGY1Z9f-12" value="Topnhanh" style="verticalLabelPosition=bottom;html=1;verticalAlign=top;align=center;strokeColor=none;fillColor=#00BEF2;shape=mxgraph.azure.website_generic;pointerEvents=1;" vertex="1" parent="1">
          <mxGeometry x="472.5" y="70" width="95" height="70" as="geometry" />
        </mxCell>
        <mxCell id="RiTgKYV7oXshovGY1Z9f-15" value="" style="endArrow=classic;startArrow=classic;html=1;rounded=0;entryX=0.5;entryY=0.85;entryDx=0;entryDy=0;entryPerimeter=0;" edge="1" parent="1" target="RiTgKYV7oXshovGY1Z9f-12">
          <mxGeometry width="50" height="50" relative="1" as="geometry">
            <mxPoint x="520" y="310" as="sourcePoint" />
            <mxPoint x="420" y="470" as="targetPoint" />
          </mxGeometry>
        </mxCell>
      </root>
    </mxGraphModel>
  </diagram>
</mxfile>
